{"asset":{"version":"2.0","generator":"babylon.js glTF exporter for Autodesk Maya 2019 v20210624.1"},"scene":0,"scenes":[{"nodes":[0,36,39]}],"nodes":[{"children":[1,2,3,17,18,21,24,25,30,31,32],"name":"Croc"},{"mesh":0,"name":"Jacket"},{"mesh":1,"name":"ExtraCloth"},{"children":[4,16],"name":"TailFins"},{"children":[5,6,7,8,9,10,11,12,13,14,15],"name":"R"},{"mesh":2,"name":"polySurface40"},{"mesh":3,"name":"polySurface41"},{"mesh":4,"name":"polySurface42"},{"mesh":5,"name":"polySurface43"},{"mesh":6,"name":"polySurface44"},{"mesh":7,"name":"polySurface45"},{"mesh":8,"name":"polySurface46"},{"mesh":9,"name":"polySurface47"},{"mesh":10,"name":"polySurface48"},{"mesh":11,"name":"polySurface49"},{"mesh":12,"name":"polySurface50"},{"rotation":[0,1,0,6.123234e-17],"scale":[1,1,-1],"name":"L"},{"mesh":13,"name":"Belt"},{"children":[19,20],"name":"Eyes"},{"mesh":14,"translation":[-1.47911416e-33,0,0],"rotation":[0,1,0,6.123234e-17],"scale":[1,1,-1],"name":"EyeL"},{"mesh":14,"name":"EyeR"},{"children":[22,23],"name":"HeadFins"},{"mesh":15,"translation":[-2.46519027e-34,0,0],"rotation":[0,1,0,6.123234e-17],"scale":[1,1,-1],"name":"HeadExtraL"},{"mesh":15,"name":"HeadExtraR"},{"mesh":16,"name":"TornPant"},{"children":[26,27,28,29],"name":"Necklace"},{"mesh":17,"name":"NecklaceC"},{"mesh":18,"name":"NecklaceThread"},{"mesh":19,"translation":[-0.016377056,0.0627258047,0.0289306846],"rotation":[-0.02124146,-0.0240151826,-0.0265919268,0.9991321],"scale":[0.8064949,0.8064949,0.8064949],"name":"NecklaceR"},{"mesh":19,"translation":[0.04525874,0.00120607123,-0.0247499514],"rotation":[0.0602778234,-0.997494638,-0.0351060741,-0.0117723988],"scale":[1.019173,1.019173,-1.019173],"name":"NecklaceL"},{"mesh":20,"name":"NecklaceSkull"},{"mesh":21,"name":"Body"},{"children":[33,34,35],"name":"Buttons"},{"mesh":22,"name":"pPlane2"},{"mesh":23,"name":"pPlane1"},{"mesh":24,"name":"pPlane3"},{"children":[37,38],"translation":[-0.330120653,0.3277243,0.0596181042],"name":"Sword"},{"mesh":25,"name":"Handle"},{"mesh":26,"name":"Blade"},{"camera":0,"translation":[0.266358525,0.742829144,1.7859807],"rotation":[-0.09582602,0.157411516,0.0153488414,0.982753],"name":"persp1"}],"cameras":[{"perspective":{"yfov":0.471089959,"zfar":10000,"znear":0.1},"type":"perspective","name":"persp1"}],"meshes":[{"primitives":[{"attributes":{"POSITION":1,"TANGENT":2,"NORMAL":3,"TEXCOORD_0":4},"indices":0,"material":0}],"name":"Jacket"},{"primitives":[{"attributes":{"POSITION":6,"TANGENT":7,"NORMAL":8,"TEXCOORD_0":9},"indices":5,"material":0}],"name":"ExtraCloth"},{"primitives":[{"attributes":{"POSITION":11,"TANGENT":12,"NORMAL":13,"TEXCOORD_0":14},"indices":10,"material":0}],"name":"polySurface40"},{"primitives":[{"attributes":{"POSITION":16,"TANGENT":17,"NORMAL":18,"TEXCOORD_0":19},"indices":15,"material":0}],"name":"polySurface41"},{"primitives":[{"attributes":{"POSITION":21,"TANGENT":22,"NORMAL":23,"TEXCOORD_0":24},"indices":20,"material":0}],"name":"polySurface42"},{"primitives":[{"attributes":{"POSITION":26,"TANGENT":27,"NORMAL":28,"TEXCOORD_0":29},"indices":25,"material":0}],"name":"polySurface43"},{"primitives":[{"attributes":{"POSITION":31,"TANGENT":32,"NORMAL":33,"TEXCOORD_0":34},"indices":30,"material":0}],"name":"polySurface44"},{"primitives":[{"attributes":{"POSITION":36,"TANGENT":37,"NORMAL":38,"TEXCOORD_0":39},"indices":35,"material":0}],"name":"polySurface45"},{"primitives":[{"attributes":{"POSITION":41,"TANGENT":42,"NORMAL":43,"TEXCOORD_0":44},"indices":40,"material":0}],"name":"polySurface46"},{"primitives":[{"attributes":{"POSITION":46,"TANGENT":47,"NORMAL":48,"TEXCOORD_0":49},"indices":45,"material":0}],"name":"polySurface47"},{"primitives":[{"attributes":{"POSITION":51,"TANGENT":52,"NORMAL":53,"TEXCOORD_0":54},"indices":50,"material":0}],"name":"polySurface48"},{"primitives":[{"attributes":{"POSITION":56,"TANGENT":57,"NORMAL":58,"TEXCOORD_0":59},"indices":55,"material":0}],"name":"polySurface49"},{"primitives":[{"attributes":{"POSITION":61,"TANGENT":62,"NORMAL":63,"TEXCOORD_0":64},"indices":60,"material":0}],"name":"polySurface50"},{"primitives":[{"attributes":{"POSITION":66,"TANGENT":67,"NORMAL":68,"TEXCOORD_0":69},"indices":65,"material":0}],"name":"Belt"},{"primitives":[{"attributes":{"POSITION":71,"TANGENT":72,"NORMAL":73,"TEXCOORD_0":74},"indices":70,"material":0}],"name":"EyeL"},{"primitives":[{"attributes":{"POSITION":76,"TANGENT":77,"NORMAL":78,"TEXCOORD_0":79},"indices":75,"material":0}],"name":"HeadExtraL"},{"primitives":[{"attributes":{"POSITION":81,"TANGENT":82,"NORMAL":83,"TEXCOORD_0":84},"indices":80,"material":0}],"name":"TornPant"},{"primitives":[{"attributes":{"POSITION":86,"TANGENT":87,"NORMAL":88,"TEXCOORD_0":89},"indices":85,"material":0}],"name":"NecklaceC"},{"primitives":[{"attributes":{"POSITION":91,"TANGENT":92,"NORMAL":93,"TEXCOORD_0":94},"indices":90,"material":0}],"name":"NecklaceThread"},{"primitives":[{"attributes":{"POSITION":96,"TANGENT":97,"NORMAL":98,"TEXCOORD_0":99},"indices":95,"material":0}],"name":"NecklaceR"},{"primitives":[{"attributes":{"POSITION":101,"TANGENT":102,"NORMAL":103,"TEXCOORD_0":104},"indices":100,"material":0}],"name":"NecklaceSkull"},{"primitives":[{"attributes":{"POSITION":106,"TANGENT":107,"NORMAL":108,"TEXCOORD_0":109},"indices":105,"material":0}],"name":"Body"},{"primitives":[{"attributes":{"POSITION":111,"TANGENT":112,"NORMAL":113,"TEXCOORD_0":114},"indices":110,"material":0}],"name":"pPlane2"},{"primitives":[{"attributes":{"POSITION":116,"TANGENT":117,"NORMAL":118,"TEXCOORD_0":119},"indices":115,"material":0}],"name":"pPlane1"},{"primitives":[{"attributes":{"POSITION":121,"TANGENT":122,"NORMAL":123,"TEXCOORD_0":124},"indices":120,"material":0}],"name":"pPlane3"},{"primitives":[{"attributes":{"POSITION":126,"TANGENT":127,"NORMAL":128,"TEXCOORD_0":129},"indices":125,"material":1}],"name":"Handle"},{"primitives":[{"attributes":{"POSITION":131,"TANGENT":132,"NORMAL":133,"TEXCOORD_0":134},"indices":130,"material":1}],"name":"Blade"}],"accessors":[{"bufferView":0,"componentType":5123,"count":822,"type":"SCALAR","name":"accessorIndices"},{"bufferView":1,"componentType":5126,"count":185,"max":[0.123536438,0.45152998,0.13463],"min":[-0.123536438,0.2269796,-0.111925893],"type":"VEC3","name":"accessorPositions"},{"bufferView":2,"componentType":5126,"count":185,"type":"VEC4","name":"accessorTangents"},{"bufferView":1,"byteOffset":2220,"componentType":5126,"count":185,"type":"VEC3","name":"accessorNormals"},{"bufferView":3,"componentType":5126,"count":185,"type":"VEC2","name":"accessorUVs"},{"bufferView":0,"byteOffset":1644,"componentType":5123,"count":18,"type":"SCALAR","name":"accessorIndices"},{"bufferView":1,"byteOffset":4440,"componentType":5126,"count":8,"max":[0.106080227,0.197152644,0.133550167],"min":[0.0485775,0.127533346,0.112058431],"type":"VEC3","name":"accessorPositions"},{"bufferView":2,"byteOffset":2960,"componentType":5126,"count":8,"type":"VEC4","name":"accessorTangents"},{"bufferView":1,"byteOffset":4536,"componentType":5126,"count":8,"type":"VEC3","name":"accessorNormals"},{"bufferView":3,"byteOffset":1480,"componentType":5126,"count":8,"type":"VEC2","name":"accessorUVs"},{"bufferView":0,"byteOffset":1680,"componentType":5123,"count":6,"type":"SCALAR","name":"accessorIndices"},{"bufferView":1,"byteOffset":4632,"componentType":5126,"count":4,"max":[-0.02905603,0.2067842,-0.112355344],"min":[-0.0316276178,0.175438643,-0.147982284],"type":"VEC3","name":"accessorPositions"},{"bufferView":2,"byteOffset":3088,"componentType":5126,"count":4,"type":"VEC4","name":"accessorTangents"},{"bufferView":1,"byteOffset":4680,"componentType":5126,"count":4,"type":"VEC3","name":"accessorNormals"},{"bufferView":3,"byteOffset":1544,"componentType":5126,"count":4,"type":"VEC2","name":"accessorUVs"},{"bufferView":0,"byteOffset":1692,"componentType":5123,"count":6,"type":"SCALAR","name":"accessorIndices"},{"bufferView":1,"byteOffset":4728,"componentType":5126,"count":4,"max":[-0.02905603,0.193318933,-0.141444013],"min":[-0.0319243781,0.167186871,-0.183892861],"type":"VEC3","name":"accessorPositions"},{"bufferView":2,"byteOffset":3152,"componentType":5126,"count":4,"type":"VEC4","name":"accessorTangents"},{"bufferView":1,"byteOffset":4776,"componentType":5126,"count":4,"type":"VEC3","name":"accessorNormals"},{"bufferView":3,"byteOffset":1576,"componentType":5126,"count":4,"type":"VEC2","name":"accessorUVs"},{"bufferView":0,"byteOffset":1704,"componentType":5123,"count":6,"type":"SCALAR","name":"accessorIndices"},{"bufferView":1,"byteOffset":4824,"componentType":5126,"count":4,"max":[-0.02610559,0.184287146,-0.183892861],"min":[-0.0313237645,0.157195449,-0.224475309],"type":"VEC3","name":"accessorPositions"},{"bufferView":2,"byteOffset":3216,"componentType":5126,"count":4,"type":"VEC4","name":"accessorTangents"},{"bufferView":1,"byteOffset":4872,"componentType":5126,"count":4,"type":"VEC3","name":"accessorNormals"},{"bufferView":3,"byteOffset":1608,"componentType":5126,"count":4,"type":"VEC2","name":"accessorUVs"},{"bufferView":0,"byteOffset":1716,"componentType":5123,"count":6,"type":"SCALAR","name":"accessorIndices"},{"bufferView":1,"byteOffset":4920,"componentType":5126,"count":4,"max":[-0.0227768719,0.176540941,-0.224475309],"min":[-0.0275019929,0.151659325,-0.2634009],"type":"VEC3","name":"accessorPositions"},{"bufferView":2,"byteOffset":3280,"componentType":5126,"count":4,"type":"VEC4","name":"accessorTangents"},{"bufferView":1,"byteOffset":4968,"componentType":5126,"count":4,"type":"VEC3","name":"accessorNormals"},{"bufferView":3,"byteOffset":1640,"componentType":5126,"count":4,"type":"VEC2","name":"accessorUVs"},{"bufferView":0,"byteOffset":1728,"componentType":5123,"count":6,"type":"SCALAR","name":"accessorIndices"},{"bufferView":1,"byteOffset":5016,"componentType":5126,"count":4,"max":[-0.0203153789,0.165765092,-0.2634009],"min":[-0.02678356,0.1395129,-0.302153528],"type":"VEC3","name":"accessorPositions"},{"bufferView":2,"byteOffset":3344,"componentType":5126,"count":4,"type":"VEC4","name":"accessorTangents"},{"bufferView":1,"byteOffset":5064,"componentType":5126,"count":4,"type":"VEC3","name":"accessorNormals"},{"bufferView":3,"byteOffset":1672,"componentType":5126,"count":4,"type":"VEC2","name":"accessorUVs"},{"bufferView":0,"byteOffset":1740,"componentType":5123,"count":6,"type":"SCALAR","name":"accessorIndices"},{"bufferView":1,"byteOffset":5112,"componentType":5126,"count":4,"max":[-0.01595509,0.155418575,-0.298985243],"min":[-0.0264991876,0.131370336,-0.334041476],"type":"VEC3","name":"accessorPositions"},{"bufferView":2,"byteOffset":3408,"componentType":5126,"count":4,"type":"VEC4","name":"accessorTangents"},{"bufferView":1,"byteOffset":5160,"componentType":5126,"count":4,"type":"VEC3","name":"accessorNormals"},{"bufferView":3,"byteOffset":1704,"componentType":5126,"count":4,"type":"VEC2","name":"accessorUVs"},{"bufferView":0,"byteOffset":1752,"componentType":5123,"count":6,"type":"SCALAR","name":"accessorIndices"},{"bufferView":1,"byteOffset":5208,"componentType":5126,"count":4,"max":[-0.01552926,0.146480456,-0.334041476],"min":[-0.0246536583,0.125881657,-0.3636996],"type":"VEC3","name":"accessorPositions"},{"bufferView":2,"byteOffset":3472,"componentType":5126,"count":4,"type":"VEC4","name":"accessorTangents"},{"bufferView":1,"byteOffset":5256,"componentType":5126,"count":4,"type":"VEC3","name":"accessorNormals"},{"bufferView":3,"byteOffset":1736,"componentType":5126,"count":4,"type":"VEC2","name":"accessorUVs"},{"bufferView":0,"byteOffset":1764,"componentType":5123,"count":6,"type":"SCALAR","name":"accessorIndices"},{"bufferView":1,"byteOffset":5304,"componentType":5126,"count":4,"max":[-0.0132844942,0.136861488,-0.362701952],"min":[-0.02339386,0.117803015,-0.3925675],"type":"VEC3","name":"accessorPositions"},{"bufferView":2,"byteOffset":3536,"componentType":5126,"count":4,"type":"VEC4","name":"accessorTangents"},{"bufferView":1,"byteOffset":5352,"componentType":5126,"count":4,"type":"VEC3","name":"accessorNormals"},{"bufferView":3,"byteOffset":1768,"componentType":5126,"count":4,"type":"VEC2","name":"accessorUVs"},{"bufferView":0,"byteOffset":1776,"componentType":5123,"count":6,"type":"SCALAR","name":"accessorIndices"},{"bufferView":1,"byteOffset":5400,"componentType":5126,"count":4,"max":[-0.0105987638,0.124783635,-0.3925675],"min":[-0.02241695,0.106264487,-0.418028027],"type":"VEC3","name":"accessorPositions"},{"bufferView":2,"byteOffset":3600,"componentType":5126,"count":4,"type":"VEC4","name":"accessorTangents"},{"bufferView":1,"byteOffset":5448,"componentType":5126,"count":4,"type":"VEC3","name":"accessorNormals"},{"bufferView":3,"byteOffset":1800,"componentType":5126,"count":4,"type":"VEC2","name":"accessorUVs"},{"bufferView":0,"byteOffset":1788,"componentType":5123,"count":6,"type":"SCALAR","name":"accessorIndices"},{"bufferView":1,"byteOffset":5496,"componentType":5126,"count":4,"max":[-0.007758243,0.113777854,-0.4130482],"min":[-0.0209554043,0.09790595,-0.4304326],"type":"VEC3","name":"accessorPositions"},{"bufferView":2,"byteOffset":3664,"componentType":5126,"count":4,"type":"VEC4","name":"accessorTangents"},{"bufferView":1,"byteOffset":5544,"componentType":5126,"count":4,"type":"VEC3","name":"accessorNormals"},{"bufferView":3,"byteOffset":1832,"componentType":5126,"count":4,"type":"VEC2","name":"accessorUVs"},{"bufferView":0,"byteOffset":1800,"componentType":5123,"count":6,"type":"SCALAR","name":"accessorIndices"},{"bufferView":1,"byteOffset":5592,"componentType":5126,"count":4,"max":[-9.4967e-19,0.0986571759,-0.425417542],"min":[-0.007758243,0.09325748,-0.4376628],"type":"VEC3","name":"accessorPositions"},{"bufferView":2,"byteOffset":3728,"componentType":5126,"count":4,"type":"VEC4","name":"accessorTangents"},{"bufferView":1,"byteOffset":5640,"componentType":5126,"count":4,"type":"VEC3","name":"accessorNormals"},{"bufferView":3,"byteOffset":1864,"componentType":5126,"count":4,"type":"VEC2","name":"accessorUVs"},{"bufferView":0,"byteOffset":1812,"componentType":5123,"count":432,"type":"SCALAR","name":"accessorIndices"},{"bufferView":1,"byteOffset":5688,"componentType":5126,"count":156,"max":[0.112026371,0.2749548,0.136027738],"min":[-0.112026371,0.234219447,-0.102317549],"type":"VEC3","name":"accessorPositions"},{"bufferView":2,"byteOffset":3792,"componentType":5126,"count":156,"type":"VEC4","name":"accessorTangents"},{"bufferView":1,"byteOffset":7560,"componentType":5126,"count":156,"type":"VEC3","name":"accessorNormals"},{"bufferView":3,"byteOffset":1896,"componentType":5126,"count":156,"type":"VEC2","name":"accessorUVs"},{"bufferView":0,"byteOffset":2676,"componentType":5123,"count":186,"type":"SCALAR","name":"accessorIndices"},{"bufferView":1,"byteOffset":9432,"componentType":5126,"count":47,"max":[-0.0371823646,0.490340978,0.0403730571],"min":[-0.0547128133,0.462735444,0.0150970835],"type":"VEC3","name":"accessorPositions"},{"bufferView":2,"byteOffset":6288,"componentType":5126,"count":47,"type":"VEC4","name":"accessorTangents"},{"bufferView":1,"byteOffset":9996,"componentType":5126,"count":47,"type":"VEC3","name":"accessorNormals"},{"bufferView":3,"byteOffset":3144,"componentType":5126,"count":47,"type":"VEC2","name":"accessorUVs"},{"bufferView":0,"byteOffset":3048,"componentType":5123,"count":24,"type":"SCALAR","name":"accessorIndices"},{"bufferView":1,"byteOffset":10560,"componentType":5126,"count":10,"max":[-0.0387592539,0.502316833,0.00536996],"min":[-0.06875086,0.4409988,-0.0186252631],"type":"VEC3","name":"accessorPositions"},{"bufferView":2,"byteOffset":7040,"componentType":5126,"count":10,"type":"VEC4","name":"accessorTangents"},{"bufferView":1,"byteOffset":10680,"componentType":5126,"count":10,"type":"VEC3","name":"accessorNormals"},{"bufferView":3,"byteOffset":3520,"componentType":5126,"count":10,"type":"VEC2","name":"accessorUVs"},{"bufferView":0,"byteOffset":3096,"componentType":5123,"count":72,"type":"SCALAR","name":"accessorIndices"},{"bufferView":1,"byteOffset":10800,"componentType":5126,"count":24,"max":[0.07296267,0.198445886,-0.0856670737],"min":[-0.07296267,0.08587437,-0.138392925],"type":"VEC3","name":"accessorPositions"},{"bufferView":2,"byteOffset":7200,"componentType":5126,"count":24,"type":"VEC4","name":"accessorTangents"},{"bufferView":1,"byteOffset":11088,"componentType":5126,"count":24,"type":"VEC3","name":"accessorNormals"},{"bufferView":3,"byteOffset":3600,"componentType":5126,"count":24,"type":"VEC2","name":"accessorUVs"},{"bufferView":0,"byteOffset":3240,"componentType":5123,"count":120,"type":"SCALAR","name":"accessorIndices"},{"bufferView":1,"byteOffset":11376,"componentType":5126,"count":27,"max":[0.004756314,0.33976993,0.105374008],"min":[-0.004756314,0.317836016,0.08063779],"type":"VEC3","name":"accessorPositions"},{"bufferView":2,"byteOffset":7584,"componentType":5126,"count":27,"type":"VEC4","name":"accessorTangents"},{"bufferView":1,"byteOffset":11700,"componentType":5126,"count":27,"type":"VEC3","name":"accessorNormals"},{"bufferView":3,"byteOffset":3792,"componentType":5126,"count":27,"type":"VEC2","name":"accessorUVs"},{"bufferView":0,"byteOffset":3480,"componentType":5123,"count":36,"type":"SCALAR","name":"accessorIndices"},{"bufferView":1,"byteOffset":12024,"componentType":5126,"count":14,"max":[0.0527765453,0.365729719,0.08559889],"min":[-0.0495491736,0.335834,0.0596533045],"type":"VEC3","name":"accessorPositions"},{"bufferView":2,"byteOffset":8016,"componentType":5126,"count":14,"type":"VEC4","name":"accessorTangents"},{"bufferView":1,"byteOffset":12192,"componentType":5126,"count":14,"type":"VEC3","name":"accessorNormals"},{"bufferView":3,"byteOffset":4008,"componentType":5126,"count":14,"type":"VEC2","name":"accessorUVs"},{"bufferView":0,"byteOffset":3552,"componentType":5123,"count":120,"type":"SCALAR","name":"accessorIndices"},{"bufferView":1,"byteOffset":12360,"componentType":5126,"count":27,"max":[-0.00696410332,0.341285765,0.0949099362],"min":[-0.01541413,0.3241978,0.07856496],"type":"VEC3","name":"accessorPositions"},{"bufferView":2,"byteOffset":8240,"componentType":5126,"count":27,"type":"VEC4","name":"accessorTangents"},{"bufferView":1,"byteOffset":12684,"componentType":5126,"count":27,"type":"VEC3","name":"accessorNormals"},{"bufferView":3,"byteOffset":4120,"componentType":5126,"count":27,"type":"VEC2","name":"accessorUVs"},{"bufferView":0,"byteOffset":3792,"componentType":5123,"count":84,"type":"SCALAR","name":"accessorIndices"},{"bufferView":1,"byteOffset":13008,"componentType":5126,"count":20,"max":[0.008882275,0.362101138,0.07225213],"min":[-0.008882275,0.349262685,0.0633401647],"type":"VEC3","name":"accessorPositions"},{"bufferView":2,"byteOffset":8672,"componentType":5126,"count":20,"type":"VEC4","name":"accessorTangents"},{"bufferView":1,"byteOffset":13248,"componentType":5126,"count":20,"type":"VEC3","name":"accessorNormals"},{"bufferView":3,"byteOffset":4336,"componentType":5126,"count":20,"type":"VEC2","name":"accessorUVs"},{"bufferView":0,"byteOffset":3960,"componentType":5123,"count":9804,"type":"SCALAR","name":"accessorIndices"},{"bufferView":1,"byteOffset":13488,"componentType":5126,"count":2438,"max":[0.262253553,0.4972034,0.20521535],"min":[-0.262253553,-0.0008308806,-0.427520782],"type":"VEC3","name":"accessorPositions"},{"bufferView":2,"byteOffset":8992,"componentType":5126,"count":2438,"type":"VEC4","name":"accessorTangents"},{"bufferView":1,"byteOffset":42744,"componentType":5126,"count":2438,"type":"VEC3","name":"accessorNormals"},{"bufferView":3,"byteOffset":4496,"componentType":5126,"count":2438,"type":"VEC2","name":"accessorUVs"},{"bufferView":0,"byteOffset":23568,"componentType":5123,"count":6,"type":"SCALAR","name":"accessorIndices"},{"bufferView":1,"byteOffset":72000,"componentType":5126,"count":4,"max":[0.0006716832,0.270057768,0.131005391],"min":[-0.009354032,0.261499941,0.125684291],"type":"VEC3","name":"accessorPositions"},{"bufferView":2,"byteOffset":48000,"componentType":5126,"count":4,"type":"VEC4","name":"accessorTangents"},{"bufferView":1,"byteOffset":72048,"componentType":5126,"count":4,"type":"VEC3","name":"accessorNormals"},{"bufferView":3,"byteOffset":24000,"componentType":5126,"count":4,"type":"VEC2","name":"accessorUVs"},{"bufferView":0,"byteOffset":23580,"componentType":5123,"count":6,"type":"SCALAR","name":"accessorIndices"},{"bufferView":1,"byteOffset":72096,"componentType":5126,"count":4,"max":[0.00174547732,0.284280628,0.121755846],"min":[-0.008289426,0.275116771,0.117568195],"type":"VEC3","name":"accessorPositions"},{"bufferView":2,"byteOffset":48064,"componentType":5126,"count":4,"type":"VEC4","name":"accessorTangents"},{"bufferView":1,"byteOffset":72144,"componentType":5126,"count":4,"type":"VEC3","name":"accessorNormals"},{"bufferView":3,"byteOffset":24032,"componentType":5126,"count":4,"type":"VEC2","name":"accessorUVs"},{"bufferView":0,"byteOffset":23592,"componentType":5123,"count":6,"type":"SCALAR","name":"accessorIndices"},{"bufferView":1,"byteOffset":72192,"componentType":5126,"count":4,"max":[0.0007243982,0.311790943,0.109794043],"min":[-0.009286365,0.303232253,0.104361378],"type":"VEC3","name":"accessorPositions"},{"bufferView":2,"byteOffset":48128,"componentType":5126,"count":4,"type":"VEC4","name":"accessorTangents"},{"bufferView":1,"byteOffset":72240,"componentType":5126,"count":4,"type":"VEC3","name":"accessorNormals"},{"bufferView":3,"byteOffset":24064,"componentType":5126,"count":4,"type":"VEC2","name":"accessorUVs"},{"bufferView":0,"byteOffset":23604,"componentType":5123,"count":1416,"type":"SCALAR","name":"accessorIndices"},{"bufferView":1,"byteOffset":72288,"componentType":5126,"count":306,"max":[0.0492778532,0.00791297853,0.0197983943],"min":[-0.0492778532,-0.09377004,-0.0197983943],"type":"VEC3","name":"accessorPositions"},{"bufferView":2,"byteOffset":48192,"componentType":5126,"count":306,"type":"VEC4","name":"accessorTangents"},{"bufferView":1,"byteOffset":75960,"componentType":5126,"count":306,"type":"VEC3","name":"accessorNormals"},{"bufferView":3,"byteOffset":24096,"componentType":5126,"count":306,"type":"VEC2","name":"accessorUVs"},{"bufferView":0,"byteOffset":26436,"componentType":5123,"count":18,"type":"SCALAR","name":"accessorIndices"},{"bufferView":1,"byteOffset":79632,"componentType":5126,"count":8,"max":[0.0825020745,0.131924048,0],"min":[-0.02474199,-0.0173125677,0],"type":"VEC3","name":"accessorPositions"},{"bufferView":2,"byteOffset":53088,"componentType":5126,"count":8,"type":"VEC4","name":"accessorTangents"},{"bufferView":1,"byteOffset":79728,"componentType":5126,"count":8,"type":"VEC3","name":"accessorNormals"},{"bufferView":3,"byteOffset":26544,"componentType":5126,"count":8,"type":"VEC2","name":"accessorUVs"}],"bufferViews":[{"buffer":0,"byteLength":26472,"name":"bufferViewScalar"},{"buffer":0,"byteOffset":26472,"byteLength":79824,"byteStride":12,"name":"bufferViewFloatVec3"},{"buffer":0,"byteOffset":106296,"byteLength":53216,"byteStride":16,"name":"bufferViewFloatVec4"},{"buffer":0,"byteOffset":159512,"byteLength":26608,"byteStride":8,"name":"bufferViewFloatVec2"}],"buffers":[{"uri":"croc.bin","byteLength":186120}],"materials":[{"pbrMetallicRoughness":{"baseColorTexture":{"index":0},"metallicFactor":0,"roughnessFactor":0.165830582},"name":"CrocColor"},{"pbrMetallicRoughness":{"baseColorTexture":{"index":1},"metallicFactor":0,"roughnessFactor":0.201679826},"alphaMode":"BLEND","name":"SwordColor"}],"textures":[{"sampler":0,"source":0,"name":"Croc.png"},{"sampler":0,"source":1,"name":"Sword.png"}],"images":[{"uri":"Croc.png"},{"uri":"Sword.png"}],"samplers":[{"magFilter":9729,"minFilter":9987}]}