{"asset":{"version":"2.0","generator":"babylon.js glTF exporter for Autodesk Maya 2019 v20210624.1"},"scene":0,"scenes":[{"nodes":[0]}],"nodes":[{"children":[1,4,5,6,24],"name":"Model"},{"children":[2,3],"name":"Eyes"},{"mesh":0,"name":"polySurface1"},{"mesh":1,"name":"polySurface2"},{"mesh":2,"name":"Belt"},{"mesh":3,"name":"Cloth"},{"children":[7,8,9],"name":"BodyAndHair"},{"mesh":4,"name":"HairCloths"},{"mesh":5,"name":"Body"},{"children":[10,11,12,13,14,15,16,17,18,19,20,21,22,23],"name":"HairPlanes"},{"mesh":6,"name":"pPlane1"},{"mesh":7,"name":"pPlane2"},{"mesh":8,"name":"pPlane3"},{"mesh":9,"name":"pPlane4"},{"mesh":10,"name":"pPlane5"},{"mesh":11,"name":"pPlane6"},{"mesh":12,"name":"pPlane7"},{"mesh":13,"name":"pPlane8"},{"mesh":14,"name":"pPlane9"},{"mesh":15,"name":"pPlane10"},{"mesh":16,"name":"pPlane11"},{"mesh":17,"name":"pPlane12"},{"mesh":18,"name":"pPlane13"},{"mesh":19,"name":"pPlane14"},{"children":[25,26],"name":"Teeth"},{"mesh":20,"name":"Lower"},{"mesh":21,"name":"polySurface5"}],"meshes":[{"primitives":[{"attributes":{"POSITION":1,"TANGENT":2,"NORMAL":3,"TEXCOORD_0":4},"indices":0,"material":0}],"name":"polySurface1"},{"primitives":[{"attributes":{"POSITION":6,"TANGENT":7,"NORMAL":8,"TEXCOORD_0":9},"indices":5,"material":0}],"name":"polySurface2"},{"primitives":[{"attributes":{"POSITION":11,"TANGENT":12,"NORMAL":13,"TEXCOORD_0":14},"indices":10,"material":0}],"name":"Belt"},{"primitives":[{"attributes":{"POSITION":16,"TANGENT":17,"NORMAL":18,"TEXCOORD_0":19},"indices":15,"material":0}],"name":"Cloth"},{"primitives":[{"attributes":{"POSITION":21,"TANGENT":22,"NORMAL":23,"TEXCOORD_0":24},"indices":20,"material":1}],"name":"HairCloths"},{"primitives":[{"attributes":{"POSITION":26,"TANGENT":27,"NORMAL":28,"TEXCOORD_0":29},"indices":25,"material":0}],"name":"Body"},{"primitives":[{"attributes":{"POSITION":31,"TANGENT":32,"NORMAL":33,"TEXCOORD_0":34},"indices":30,"material":1}],"name":"pPlane1"},{"primitives":[{"attributes":{"POSITION":36,"TANGENT":37,"NORMAL":38,"TEXCOORD_0":39},"indices":35,"material":1}],"name":"pPlane2"},{"primitives":[{"attributes":{"POSITION":41,"TANGENT":42,"NORMAL":43,"TEXCOORD_0":44},"indices":40,"material":1}],"name":"pPlane3"},{"primitives":[{"attributes":{"POSITION":46,"TANGENT":47,"NORMAL":48,"TEXCOORD_0":49},"indices":45,"material":1}],"name":"pPlane4"},{"primitives":[{"attributes":{"POSITION":51,"TANGENT":52,"NORMAL":53,"TEXCOORD_0":54},"indices":50,"material":1}],"name":"pPlane5"},{"primitives":[{"attributes":{"POSITION":56,"TANGENT":57,"NORMAL":58,"TEXCOORD_0":59},"indices":55,"material":1}],"name":"pPlane6"},{"primitives":[{"attributes":{"POSITION":61,"TANGENT":62,"NORMAL":63,"TEXCOORD_0":64},"indices":60,"material":1}],"name":"pPlane7"},{"primitives":[{"attributes":{"POSITION":66,"TANGENT":67,"NORMAL":68,"TEXCOORD_0":69},"indices":65,"material":1}],"name":"pPlane8"},{"primitives":[{"attributes":{"POSITION":71,"TANGENT":72,"NORMAL":73,"TEXCOORD_0":74},"indices":70,"material":1}],"name":"pPlane9"},{"primitives":[{"attributes":{"POSITION":76,"TANGENT":77,"NORMAL":78,"TEXCOORD_0":79},"indices":75,"material":1}],"name":"pPlane10"},{"primitives":[{"attributes":{"POSITION":81,"TANGENT":82,"NORMAL":83,"TEXCOORD_0":84},"indices":80,"material":1}],"name":"pPlane11"},{"primitives":[{"attributes":{"POSITION":86,"TANGENT":87,"NORMAL":88,"TEXCOORD_0":89},"indices":85,"material":1}],"name":"pPlane12"},{"primitives":[{"attributes":{"POSITION":91,"TANGENT":92,"NORMAL":93,"TEXCOORD_0":94},"indices":90,"material":1}],"name":"pPlane13"},{"primitives":[{"attributes":{"POSITION":96,"TANGENT":97,"NORMAL":98,"TEXCOORD_0":99},"indices":95,"material":1}],"name":"pPlane14"},{"primitives":[{"attributes":{"POSITION":101,"TANGENT":102,"NORMAL":103,"TEXCOORD_0":104},"indices":100,"material":0}],"name":"Lower"},{"primitives":[{"attributes":{"POSITION":106,"TANGENT":107,"NORMAL":108,"TEXCOORD_0":109},"indices":105,"material":0}],"name":"polySurface5"}],"accessors":[{"bufferView":0,"componentType":5123,"count":168,"type":"SCALAR","name":"accessorIndices"},{"bufferView":1,"componentType":5126,"count":33,"max":[0.01802622,0.473078728,0.0589562356],"min":[0.00830647,0.463358939,0.0542539023],"type":"VEC3","name":"accessorPositions"},{"bufferView":2,"componentType":5126,"count":33,"type":"VEC4","name":"accessorTangents"},{"bufferView":1,"byteOffset":396,"componentType":5126,"count":33,"type":"VEC3","name":"accessorNormals"},{"bufferView":3,"componentType":5126,"count":33,"type":"VEC2","name":"accessorUVs"},{"bufferView":0,"byteOffset":336,"componentType":5123,"count":168,"type":"SCALAR","name":"accessorIndices"},{"bufferView":1,"byteOffset":792,"componentType":5126,"count":33,"max":[-0.00830647,0.473078728,0.0589562356],"min":[-0.01802622,0.463358939,0.0542539023],"type":"VEC3","name":"accessorPositions"},{"bufferView":2,"byteOffset":528,"componentType":5126,"count":33,"type":"VEC4","name":"accessorTangents"},{"bufferView":1,"byteOffset":1188,"componentType":5126,"count":33,"type":"VEC3","name":"accessorNormals"},{"bufferView":3,"byteOffset":264,"componentType":5126,"count":33,"type":"VEC2","name":"accessorUVs"},{"bufferView":0,"byteOffset":672,"componentType":5123,"count":336,"type":"SCALAR","name":"accessorIndices"},{"bufferView":1,"byteOffset":1584,"componentType":5126,"count":172,"max":[0.063396126,0.2769682,0.03686586],"min":[-0.0607363768,0.222511083,-0.06879365],"type":"VEC3","name":"accessorPositions"},{"bufferView":2,"byteOffset":1056,"componentType":5126,"count":172,"type":"VEC4","name":"accessorTangents"},{"bufferView":1,"byteOffset":3648,"componentType":5126,"count":172,"type":"VEC3","name":"accessorNormals"},{"bufferView":3,"byteOffset":528,"componentType":5126,"count":172,"type":"VEC2","name":"accessorUVs"},{"bufferView":0,"byteOffset":1344,"componentType":5123,"count":162,"type":"SCALAR","name":"accessorIndices"},{"bufferView":1,"byteOffset":5712,"componentType":5126,"count":40,"max":[0.0256500617,0.2531165,0.0323381126],"min":[-0.0302844867,0.07183148,0.0162471365],"type":"VEC3","name":"accessorPositions"},{"bufferView":2,"byteOffset":3808,"componentType":5126,"count":40,"type":"VEC4","name":"accessorTangents"},{"bufferView":1,"byteOffset":6192,"componentType":5126,"count":40,"type":"VEC3","name":"accessorNormals"},{"bufferView":3,"byteOffset":1904,"componentType":5126,"count":40,"type":"VEC2","name":"accessorUVs"},{"bufferView":0,"byteOffset":1668,"componentType":5123,"count":13344,"type":"SCALAR","name":"accessorIndices"},{"bufferView":1,"byteOffset":6672,"componentType":5126,"count":2534,"max":[0.09358492,0.52080375,0.0792114],"min":[-0.09124906,0.03284431,-0.100681856],"type":"VEC3","name":"accessorPositions"},{"bufferView":2,"byteOffset":4448,"componentType":5126,"count":2534,"type":"VEC4","name":"accessorTangents"},{"bufferView":1,"byteOffset":37080,"componentType":5126,"count":2534,"type":"VEC3","name":"accessorNormals"},{"bufferView":3,"byteOffset":2224,"componentType":5126,"count":2534,"type":"VEC2","name":"accessorUVs"},{"bufferView":0,"byteOffset":28356,"componentType":5123,"count":9702,"type":"SCALAR","name":"accessorIndices"},{"bufferView":1,"byteOffset":67488,"componentType":5126,"count":2203,"max":[0.21876581,0.496302068,0.08155714],"min":[-0.21876581,-0.00463844,-0.0763832256],"type":"VEC3","name":"accessorPositions"},{"bufferView":2,"byteOffset":44992,"componentType":5126,"count":2203,"type":"VEC4","name":"accessorTangents"},{"bufferView":1,"byteOffset":93924,"componentType":5126,"count":2203,"type":"VEC3","name":"accessorNormals"},{"bufferView":3,"byteOffset":22496,"componentType":5126,"count":2203,"type":"VEC2","name":"accessorUVs"},{"bufferView":0,"byteOffset":47760,"componentType":5123,"count":6,"type":"SCALAR","name":"accessorIndices"},{"bufferView":1,"byteOffset":120360,"componentType":5126,"count":4,"max":[0.03811814,0.476712763,0.0325823426],"min":[0.0274752136,0.468557417,0.02572892],"type":"VEC3","name":"accessorPositions"},{"bufferView":2,"byteOffset":80240,"componentType":5126,"count":4,"type":"VEC4","name":"accessorTangents"},{"bufferView":1,"byteOffset":120408,"componentType":5126,"count":4,"type":"VEC3","name":"accessorNormals"},{"bufferView":3,"byteOffset":40120,"componentType":5126,"count":4,"type":"VEC2","name":"accessorUVs"},{"bufferView":0,"byteOffset":47772,"componentType":5123,"count":6,"type":"SCALAR","name":"accessorIndices"},{"bufferView":1,"byteOffset":120456,"componentType":5126,"count":4,"max":[0.0360342339,0.4698601,0.038256295],"min":[0.02536296,0.459908783,0.0315527581],"type":"VEC3","name":"accessorPositions"},{"bufferView":2,"byteOffset":80304,"componentType":5126,"count":4,"type":"VEC4","name":"accessorTangents"},{"bufferView":1,"byteOffset":120504,"componentType":5126,"count":4,"type":"VEC3","name":"accessorNormals"},{"bufferView":3,"byteOffset":40152,"componentType":5126,"count":4,"type":"VEC2","name":"accessorUVs"},{"bufferView":0,"byteOffset":47784,"componentType":5123,"count":12,"type":"SCALAR","name":"accessorIndices"},{"bufferView":1,"byteOffset":120552,"componentType":5126,"count":6,"max":[0.0328185633,0.462765545,0.0451840423],"min":[0.0227032434,0.4518,0.03612277],"type":"VEC3","name":"accessorPositions"},{"bufferView":2,"byteOffset":80368,"componentType":5126,"count":6,"type":"VEC4","name":"accessorTangents"},{"bufferView":1,"byteOffset":120624,"componentType":5126,"count":6,"type":"VEC3","name":"accessorNormals"},{"bufferView":3,"byteOffset":40184,"componentType":5126,"count":6,"type":"VEC2","name":"accessorUVs"},{"bufferView":0,"byteOffset":47808,"componentType":5123,"count":12,"type":"SCALAR","name":"accessorIndices"},{"bufferView":1,"byteOffset":120696,"componentType":5126,"count":6,"max":[0.03003312,0.456950366,0.0528586581],"min":[0.0201446749,0.44638592,0.042622827],"type":"VEC3","name":"accessorPositions"},{"bufferView":2,"byteOffset":80464,"componentType":5126,"count":6,"type":"VEC4","name":"accessorTangents"},{"bufferView":1,"byteOffset":120768,"componentType":5126,"count":6,"type":"VEC3","name":"accessorNormals"},{"bufferView":3,"byteOffset":40232,"componentType":5126,"count":6,"type":"VEC2","name":"accessorUVs"},{"bufferView":0,"byteOffset":47832,"componentType":5123,"count":6,"type":"SCALAR","name":"accessorIndices"},{"bufferView":1,"byteOffset":120840,"componentType":5126,"count":4,"max":[0.0411491022,0.4777072,0.0297021959],"min":[0.0272730347,0.47581026,0.0157701969],"type":"VEC3","name":"accessorPositions"},{"bufferView":2,"byteOffset":80560,"componentType":5126,"count":4,"type":"VEC4","name":"accessorTangents"},{"bufferView":1,"byteOffset":120888,"componentType":5126,"count":4,"type":"VEC3","name":"accessorNormals"},{"bufferView":3,"byteOffset":40280,"componentType":5126,"count":4,"type":"VEC2","name":"accessorUVs"},{"bufferView":0,"byteOffset":47844,"componentType":5123,"count":12,"type":"SCALAR","name":"accessorIndices"},{"bufferView":1,"byteOffset":120936,"componentType":5126,"count":6,"max":[0.0268222112,0.454836935,0.0585096925],"min":[0.0139075117,0.444168776,0.0493491627],"type":"VEC3","name":"accessorPositions"},{"bufferView":2,"byteOffset":80624,"componentType":5126,"count":6,"type":"VEC4","name":"accessorTangents"},{"bufferView":1,"byteOffset":121008,"componentType":5126,"count":6,"type":"VEC3","name":"accessorNormals"},{"bufferView":3,"byteOffset":40312,"componentType":5126,"count":6,"type":"VEC2","name":"accessorUVs"},{"bufferView":0,"byteOffset":47868,"componentType":5123,"count":6,"type":"SCALAR","name":"accessorIndices"},{"bufferView":1,"byteOffset":121080,"componentType":5126,"count":4,"max":[-0.0173364952,0.433306426,0.0547468],"min":[-0.0235456228,0.421763361,0.0438149],"type":"VEC3","name":"accessorPositions"},{"bufferView":2,"byteOffset":80720,"componentType":5126,"count":4,"type":"VEC4","name":"accessorTangents"},{"bufferView":1,"byteOffset":121128,"componentType":5126,"count":4,"type":"VEC3","name":"accessorNormals"},{"bufferView":3,"byteOffset":40360,"componentType":5126,"count":4,"type":"VEC2","name":"accessorUVs"},{"bufferView":0,"byteOffset":47880,"componentType":5123,"count":6,"type":"SCALAR","name":"accessorIndices"},{"bufferView":1,"byteOffset":121176,"componentType":5126,"count":4,"max":[-0.0179103818,0.4509742,0.05117025],"min":[-0.0315680429,0.440190464,0.0425454453],"type":"VEC3","name":"accessorPositions"},{"bufferView":2,"byteOffset":80784,"componentType":5126,"count":4,"type":"VEC4","name":"accessorTangents"},{"bufferView":1,"byteOffset":121224,"componentType":5126,"count":4,"type":"VEC3","name":"accessorNormals"},{"bufferView":3,"byteOffset":40392,"componentType":5126,"count":4,"type":"VEC2","name":"accessorUVs"},{"bufferView":0,"byteOffset":47892,"componentType":5123,"count":6,"type":"SCALAR","name":"accessorIndices"},{"bufferView":1,"byteOffset":121272,"componentType":5126,"count":4,"max":[-0.0227313209,0.462957978,0.0426472351],"min":[-0.0360450819,0.4562175,0.0311429929],"type":"VEC3","name":"accessorPositions"},{"bufferView":2,"byteOffset":80848,"componentType":5126,"count":4,"type":"VEC4","name":"accessorTangents"},{"bufferView":1,"byteOffset":121320,"componentType":5126,"count":4,"type":"VEC3","name":"accessorNormals"},{"bufferView":3,"byteOffset":40424,"componentType":5126,"count":4,"type":"VEC2","name":"accessorUVs"},{"bufferView":0,"byteOffset":47904,"componentType":5123,"count":6,"type":"SCALAR","name":"accessorIndices"},{"bufferView":1,"byteOffset":121368,"componentType":5126,"count":4,"max":[-0.02558932,0.470706463,0.0359597132],"min":[-0.037304204,0.4606241,0.02979766],"type":"VEC3","name":"accessorPositions"},{"bufferView":2,"byteOffset":80912,"componentType":5126,"count":4,"type":"VEC4","name":"accessorTangents"},{"bufferView":1,"byteOffset":121416,"componentType":5126,"count":4,"type":"VEC3","name":"accessorNormals"},{"bufferView":3,"byteOffset":40456,"componentType":5126,"count":4,"type":"VEC2","name":"accessorUVs"},{"bufferView":0,"byteOffset":47916,"componentType":5123,"count":6,"type":"SCALAR","name":"accessorIndices"},{"bufferView":1,"byteOffset":121464,"componentType":5126,"count":4,"max":[-0.0266956259,0.4742354,0.0337341],"min":[-0.03897293,0.468689173,0.0227339827],"type":"VEC3","name":"accessorPositions"},{"bufferView":2,"byteOffset":80976,"componentType":5126,"count":4,"type":"VEC4","name":"accessorTangents"},{"bufferView":1,"byteOffset":121512,"componentType":5126,"count":4,"type":"VEC3","name":"accessorNormals"},{"bufferView":3,"byteOffset":40488,"componentType":5126,"count":4,"type":"VEC2","name":"accessorUVs"},{"bufferView":0,"byteOffset":47928,"componentType":5123,"count":6,"type":"SCALAR","name":"accessorIndices"},{"bufferView":1,"byteOffset":121560,"componentType":5126,"count":4,"max":[-0.02879073,0.4763072,0.0281780623],"min":[-0.0421801843,0.4731808,0.0150468573],"type":"VEC3","name":"accessorPositions"},{"bufferView":2,"byteOffset":81040,"componentType":5126,"count":4,"type":"VEC4","name":"accessorTangents"},{"bufferView":1,"byteOffset":121608,"componentType":5126,"count":4,"type":"VEC3","name":"accessorNormals"},{"bufferView":3,"byteOffset":40520,"componentType":5126,"count":4,"type":"VEC2","name":"accessorUVs"},{"bufferView":0,"byteOffset":47940,"componentType":5123,"count":6,"type":"SCALAR","name":"accessorIndices"},{"bufferView":1,"byteOffset":121656,"componentType":5126,"count":4,"max":[-0.0173364952,0.433306426,0.0547468],"min":[-0.0235456228,0.421763361,0.0438149],"type":"VEC3","name":"accessorPositions"},{"bufferView":2,"byteOffset":81104,"componentType":5126,"count":4,"type":"VEC4","name":"accessorTangents"},{"bufferView":1,"byteOffset":121704,"componentType":5126,"count":4,"type":"VEC3","name":"accessorNormals"},{"bufferView":3,"byteOffset":40552,"componentType":5126,"count":4,"type":"VEC2","name":"accessorUVs"},{"bufferView":0,"byteOffset":47952,"componentType":5123,"count":6,"type":"SCALAR","name":"accessorIndices"},{"bufferView":1,"byteOffset":121752,"componentType":5126,"count":4,"max":[0.03811814,0.476712763,0.0325823426],"min":[0.0274752136,0.468557417,0.02572892],"type":"VEC3","name":"accessorPositions"},{"bufferView":2,"byteOffset":81168,"componentType":5126,"count":4,"type":"VEC4","name":"accessorTangents"},{"bufferView":1,"byteOffset":121800,"componentType":5126,"count":4,"type":"VEC3","name":"accessorNormals"},{"bufferView":3,"byteOffset":40584,"componentType":5126,"count":4,"type":"VEC2","name":"accessorUVs"},{"bufferView":0,"byteOffset":47964,"componentType":5123,"count":408,"type":"SCALAR","name":"accessorIndices"},{"bufferView":1,"byteOffset":121848,"componentType":5126,"count":110,"max":[0.00872147,0.434355617,0.0691403449],"min":[-0.00872147,0.427683622,0.05341331],"type":"VEC3","name":"accessorPositions"},{"bufferView":2,"byteOffset":81232,"componentType":5126,"count":110,"type":"VEC4","name":"accessorTangents"},{"bufferView":1,"byteOffset":123168,"componentType":5126,"count":110,"type":"VEC3","name":"accessorNormals"},{"bufferView":3,"byteOffset":40616,"componentType":5126,"count":110,"type":"VEC2","name":"accessorUVs"},{"bufferView":0,"byteOffset":48780,"componentType":5123,"count":408,"type":"SCALAR","name":"accessorIndices"},{"bufferView":1,"byteOffset":124488,"componentType":5126,"count":110,"max":[0.0127865393,0.438454151,0.07078337],"min":[-0.0127865393,0.428616136,0.05208794],"type":"VEC3","name":"accessorPositions"},{"bufferView":2,"byteOffset":82992,"componentType":5126,"count":110,"type":"VEC4","name":"accessorTangents"},{"bufferView":1,"byteOffset":125808,"componentType":5126,"count":110,"type":"VEC3","name":"accessorNormals"},{"bufferView":3,"byteOffset":41496,"componentType":5126,"count":110,"type":"VEC2","name":"accessorUVs"}],"bufferViews":[{"buffer":0,"byteLength":49596,"name":"bufferViewScalar"},{"buffer":0,"byteOffset":49596,"byteLength":127128,"byteStride":12,"name":"bufferViewFloatVec3"},{"buffer":0,"byteOffset":176724,"byteLength":84752,"byteStride":16,"name":"bufferViewFloatVec4"},{"buffer":0,"byteOffset":261476,"byteLength":42376,"byteStride":8,"name":"bufferViewFloatVec2"}],"buffers":[{"uri":"70fb95682073c23c7bf6b91a7bcccfef.bin","byteLength":303852}],"materials":[{"pbrMetallicRoughness":{"baseColorTexture":{"index":1},"metallicRoughnessTexture":{"index":2}},"normalTexture":{"index":0},"name":"SkinColor"},{"pbrMetallicRoughness":{"baseColorTexture":{"index":4},"metallicRoughnessTexture":{"index":5}},"normalTexture":{"index":3},"name":"ClothColor"}],"textures":[{"sampler":0,"source":0,"name":"54d61b7024e86f8ad028f114344a444f.png"},{"sampler":0,"source":1,"name":"ad72fafeb69745cac17b175bdcf1dba8.png"},{"sampler":0,"source":2,"name":"e26dce1a265316d7559ed77ddb61842f.png"},{"sampler":0,"source":3,"name":"4110ac0bb649bdaa334a7444c04ae572.png"},{"sampler":0,"source":4,"name":"3aa3dc61290657c90485689f1f02e785.png"},{"sampler":0,"source":5,"name":"20df5223489ec91f0bd81f15d3cccea1.png"}],"images":[{"uri":"54d61b7024e86f8ad028f114344a444f.png"},{"uri":"ad72fafeb69745cac17b175bdcf1dba8.png"},{"uri":"e26dce1a265316d7559ed77ddb61842f.png"},{"uri":"4110ac0bb649bdaa334a7444c04ae572.png"},{"uri":"3aa3dc61290657c90485689f1f02e785.png"},{"uri":"20df5223489ec91f0bd81f15d3cccea1.png"}],"samplers":[{"magFilter":9729,"minFilter":9987}]}